<svg xmlns="http://www.w3.org/2000/svg" height="24px" viewBox="0 -960 960 960" width="24px" fill="#5f6368"><path d="M 480,-120 Q 342,-120 239.5,-211.5 137,-303 122,-440 h 82 q 14,104 92.5,172 78.5,68 183.5,68 117,0 198.5,-81.5 Q 760,-363 760,-480 760,-597 678.5,-678.5 597,-760 480,-760 q -69,0 -129,32 -60,32 -101,88 h 110 v 80 H 120 v -240 h 80 v 94 q 51,-64 124.5,-99 73.5,-35 155.5,-35 75,0 140.5,28.5 65.5,28.5 114,77 48.5,48.5 77,114 28.5,65.5 28.5,140.5 0,75 -28.5,140.5 -28.5,65.5 -77,114 -48.5,48.5 -114,77 Q 555,-120 480,-120 Z"/></svg>


